<?xml version="1.0" encoding="utf-8"?>
<!-- Generator: Adobe Illustrator 21.0.2, SVG Export Plug-In . SVG Version: 6.00 Build 0)  -->
<svg version="1.1" id="Capa_1" xmlns="http://www.w3.org/2000/svg" xmlns:xlink="http://www.w3.org/1999/xlink" x="0px" y="0px"
	 width="330px" height="126px" viewBox="0 0 330 126" style="enable-background:new 0 0 330 126;" xml:space="preserve">
<style type="text/css">
	.st0{fill:#71D8BF;}
	.st1{fill:#585757;}
	.st2{fill:#FFFFFF;}
</style>
<g>
	<g>
		<path class="st0" d="M122.49709,32.2012c1.1504-2.4932,2.5654-4.4424,4.2436-5.8448c1.67819-1.4023,3.7281-2.1044,6.1499-2.1044
			c0.7681,0,1.50589,0.0839,2.2124,0.2519c0.70801,0.168,1.3369,0.4316,1.88919,0.792l-0.4678,4.7832
			c-0.144,0.5996-0.50339,0.8994-1.0786,0.8994c-0.3369,0-0.82759-0.0722-1.4751-0.2158c-0.647-0.1445-1.3799-0.2158-2.1938-0.2158
			c-1.15189,0-2.17679,0.1679-3.0762,0.5029c-0.89799,0.3369-1.70268,0.834-2.40968,1.4932
			c-0.707,0.6591-1.34321,1.4746-1.90621,2.4453c-0.5645,0.9717-1.07379,2.081-1.5284,3.3281v23.0195h-6.4389V24.8994h3.6684
			c0.6958,0,1.1748,0.1319,1.4395,0.3965c0.2632,0.2637,0.4438,0.7187,0.53861,1.3662L122.49709,32.2012z"/>
		<path class="st0" d="M168.89749,53.8906c1.12199,1.46,0.80951,3.5772-0.71001,4.6172c-0.10939,0.0752-0.22069,0.1485-0.334,0.2207
			c-1.10248,0.708-2.2832,1.2891-3.543,1.7442c-1.2587,0.456-2.55948,0.7978-3.9023,1.0253
			c-1.34329,0.2276-2.6743,0.3418-3.9917,0.3418c-2.5181,0-4.8389-0.4257-6.9604-1.2763
			c-2.12209-0.8506-3.95609-2.0987-5.50299-3.7412c-1.5468-1.6416-2.75241-3.6748-3.6152-6.0967
			c-0.86281-2.4219-1.29539-5.2031-1.29539-8.3447c0-2.542,0.39009-4.9151,1.17039-7.1221
			c0.77831-2.2061,1.8999-4.1182,3.3623-5.7373c1.46239-1.6182,3.2495-2.8887,5.3589-3.8135
			c2.10979-0.9219,4.4839-1.3838,7.1216-1.3838c2.18309,0,4.20259,0.3653,6.06149,1.0967c1.8584,0.7324,3.46481,1.7871,4.8203,3.165
			c1.35352,1.3789,2.416,3.0821,3.18361,5.1084c0.7666,2.0264,1.15039,4.334,1.15039,6.9239c0,1.0068-0.1084,1.6787-0.32419,2.0146
			c-0.21591,0.336-0.62311,0.5029-1.2227,0.5029h-24.3501c0.07179,2.3028,0.3882,4.3047,0.95309,6.0069
			c0.5625,1.7031,1.3477,3.124,2.356,4.2627c1.0063,1.1396,2.20599,1.9902,3.59669,2.5537
			c1.39059,0.5635,2.9492,0.8457,4.6748,0.8457c1.6064,0,2.99069-0.1856,4.15529-0.5576
			c1.16301-0.3711,2.16301-0.7735,3.00291-1.2051c0.8398-0.4316,1.541-0.833,2.1055-1.2051
			c0.5625-0.3721,1.04779-0.5576,1.45599-0.5576C168.20119,53.2793,168.60939,53.4834,168.89749,53.8906L168.89749,53.8906z
			 M165.51659,39.1436c0-1.4873-0.20999-2.8477-0.62889-4.0821c-0.4209-1.2353-1.0332-2.3027-1.83591-3.2021
			c-0.8028-0.8985-1.7793-1.5948-2.9312-2.086c-1.15041-0.4912-2.4585-0.7373-3.9194-0.7373c-3.0708,0-5.4986,0.8936-7.28519,2.6797
			c-1.78511,1.7862-2.89452,4.2627-3.32622,7.4278H165.51659z"/>
		<path class="st0" d="M179.32809,32.0938c-0.69531-1.2383-0.38861-2.8155,0.73149-3.6875
			c1.4668-1.1436,3.0097-2.0479,4.62691-2.7159c2.32719-0.959,4.90529-1.4384,7.7334-1.4384c2.03911,0,3.84959,0.3359,5.4326,1.0078
			c1.58209,0.6709,2.9131,1.6064,3.9913,2.8047c1.07999,1.1992,1.89549,2.6503,2.4462,4.3525
			c0.5528,1.7031,0.8282,3.5732,0.8282,5.6113V58.501c0,1.5664-1.26961,2.8349-2.83601,2.8349h-0.0049
			c-0.625,0-1.10539-0.1015-1.43939-0.3056c-0.33688-0.2032-0.6006-0.6045-0.791-1.2051l-0.7198-3.4522
			c-0.95889,0.8868-1.89549,1.6719-2.8056,2.3555c-0.9111,0.6836-1.87109,1.2598-2.8779,1.7266
			c-1.00589,0.4678-2.08009,0.8271-3.2178,1.0791c-1.14059,0.2519-2.40529,0.3779-3.7959,0.3779
			c-1.4151,0-2.74609-0.1982-3.99319-0.5937s-2.33099-0.9893-3.2558-1.7803c-0.92189-0.792-1.6534-1.792-2.19341-3.0039
			c-0.53909-1.21-0.8096-2.6436-0.8096-4.2979c0-1.4394,0.3965-2.8232,1.1875-4.1543c0.791-1.331,2.0742-2.5127,3.84871-3.5429
			c1.77539-1.0313,4.08791-1.876,6.9433-2.5362c2.85262-0.6591,6.35262-1.0371,10.502-1.1328v-2.8418
			c0-2.8291-0.6123-4.9697-1.834-6.4209c-1.2227-1.4502-3.0098-2.1758-5.35939-2.1758c-1.584,0-2.90822,0.1983-3.97461,0.5938
			c-1.06839,0.3955-1.9922,0.8398-2.77051,1.3301c-0.77829,0.4922-1.4502,0.9365-2.01369,1.331
			c-0.56441,0.3965-1.12111,0.5938-1.67281,0.5938c-0.4317,0-0.8037-0.1133-1.1153-0.3418
			C179.80759,32.7119,179.543,32.4287,179.32809,32.0938L179.32809,32.0938z M198.85939,44.9346
			c-2.9492,0.0957-5.4619,0.33-7.53621,0.7011c-2.07419,0.3721-3.76459,0.8584-5.07118,1.4571
			c-1.30672,0.5996-2.254,1.3076-2.84091,2.122c-0.58789,0.8155-0.88181,1.7266-0.88181,2.7334
			c0,0.959,0.1562,1.7872,0.46681,2.4825c0.3125,0.6953,0.73729,1.2646,1.2773,1.708c0.5401,0.4443,1.1748,0.7676,1.9063,0.9717
			c0.7314,0.2031,1.5166,0.3046,2.3564,0.3046c1.127,0,2.1582-0.1132,3.0928-0.3408c0.9346-0.2275,1.8174-0.5576,2.6436-0.9892
			c0.82809-0.4317,1.61909-0.9463,2.375-1.5459c0.7558-0.6006,1.4931-1.2832,2.2119-2.0518V44.9346z"/>
		<path class="st0" d="M218.28709,8.3535h-0.01071c-1.7657,0-3.19629,1.4307-3.19629,3.1963v0.9473v44.6953v0.9482
			c0,1.7647,1.43059,3.1953,3.19629,3.1953h0.01071c1.76469,0,3.1953-1.4306,3.1953-3.1953v-0.9482V12.4971v-0.9473
			C221.48239,9.7842,220.05179,8.3535,218.28709,8.3535z"/>
	</g>
	<g>
		<path class="st1" d="M125.25589,115.2871c-2.878,0-5.08989-0.8027-6.6368-2.4092c-1.5463-1.6064-2.3193-3.9209-2.3193-6.9424
			V83.6348h-4.3887c-0.3828,0-0.70699-0.1143-0.9702-0.3418c-0.2646-0.2276-0.396-0.5811-0.396-1.0606v-2.5547l5.9707-0.7548
			l1.4746-11.2579c0.0723-0.3603,0.23441-0.6533,0.4854-0.8818c0.2519-0.2275,0.58099-0.3418,0.9897-0.3418h3.23679v12.5537h10.5396
			v4.6397h-10.5396v21.86909c0,1.5352,0.3721,2.6748,1.11581,3.417c0.7417,0.7432,1.7026,1.1152,2.8774,1.1152
			c0.6699,0,1.2529-0.08981,1.74419-0.2695c0.49071-0.1797,0.91791-0.377,1.27731-0.5937
			c0.35939-0.2159,0.6655-0.41309,0.916-0.5928c0.2529-0.1807,0.47459-0.2705,0.6655-0.2705c0.33699,0,0.6353,0.2041,0.8999,0.6113
			l1.87109,3.0576c-1.1049,1.0313-2.43401,1.8408-3.9931,2.4278C128.51759,114.9941,126.91109,115.2871,125.25589,115.2871z"/>
		<path class="st1" d="M145.93748,85.5771c1.15041-2.4941,2.5659-4.4423,4.24411-5.8447
			c1.6778-1.4033,3.72809-2.1045,6.14989-2.1045c0.76811,0,1.5054,0.084,2.21201,0.252c0.70851,0.168,1.3374,0.4316,1.8891,0.791
			l-0.4678,4.7842c-0.144,0.5996-0.50339,0.8994-1.0786,0.8994c-0.3364,0-0.82759-0.0723-1.47459-0.2158
			c-0.647-0.1446-1.3799-0.21581-2.1938-0.21581c-1.1519,0-2.17679,0.1679-3.07671,0.5029
			c-0.89789,0.33691-1.70259,0.83401-2.4097,1.4931c-0.7065,0.6592-1.3427,1.4747-1.9057,2.4454
			c-0.5645,0.9716-1.07419,2.08099-1.52829,3.32809v23.5713h-6.4395V78.2754h3.66899c0.6958,0,1.1748,0.13181,1.43941,0.3955
			c0.2632,0.2646,0.44389,0.7197,0.53859,1.3672L145.93748,85.5771z"/>
		<path class="st1" d="M194.13669,109.6045c-0.79199,0.96-1.7392,1.793-2.8418,2.5c-1.1035,0.708-2.28421,1.2891-3.54289,1.7441
			c-1.25981,0.4561-2.55962,0.7979-3.90341,1.0254c-1.3427,0.2276-2.6738,0.3418-3.9912,0.3418
			c-2.51851,0-4.83881-0.4267-6.96091-1.2763c-2.1221-0.8506-3.9561-2.0987-5.5029-3.7413
			c-1.54689-1.64249-2.752-3.6748-3.6153-6.0966c-0.86229-2.4219-1.29491-5.2032-1.29491-8.3448
			c0-2.542,0.38962-4.916,1.16991-7.12199c0.77831-2.2061,1.90041-4.1182,3.3623-5.7373c1.46289-1.6182,3.25-2.8887,5.35941-3.8135
			c2.10939-0.9219,4.48439-1.3838,7.12109-1.3838c2.18359,0,4.20309,0.3652,6.06149,1.09669
			c1.85841,0.7314,3.4649,1.7871,4.8203,3.165c1.35451,1.3789,2.416,3.082,3.18361,5.1084
			c0.7666,2.02641,1.15039,4.334,1.15039,6.92381c0,1.0069-0.1084,1.67879-0.32419,2.01469
			c-0.21581,0.33501-0.6221,0.50291-1.22169,0.50291h-24.35062c0.0713,2.3028,0.38771,4.3047,0.9532,6.0069
			c0.5625,1.7031,1.34761,3.124,2.35541,4.2617c1.0069,1.1406,2.2061,1.9912,3.59669,2.5547
			c1.39059,0.5634,2.9492,0.8457,4.6758,0.8457c1.60551,0,2.9902-0.1856,4.1543-0.5586c1.1631-0.3711,2.1631-0.7735,3.00291-1.2041
			c0.83989-0.4317,1.541-0.833,2.1055-1.2051c0.5625-0.3721,1.04781-0.5576,1.45599-0.5576c0.5264,0,0.93559,0.2031,1.2227,0.61131
			L194.13669,109.6045z M188.957,92.5195c0-1.4873-0.20992-2.8476-0.62891-4.082c-0.4209-1.2354-1.03221-2.3027-1.83591-3.2021
			c-0.8027-0.8995-1.7793-1.5948-2.93069-2.086c-1.15041-0.4912-2.459-0.7373-3.91991-0.7373c-3.0703,0-5.498,0.8936-7.2852,2.6797
			c-1.7851,1.7861-2.8945,4.2627-3.3261,7.4277H188.957z"/>
		<path class="st1" d="M208.59569,83.5635c0.791-0.8877,1.63091-1.6905,2.5186-2.4102c0.88672-0.7197,1.82809-1.3369,2.8232-1.8525
			c0.9951-0.51559,2.0508-0.91119,3.166-1.1875c1.1133-0.2754,2.31841-0.41309,3.6143-0.41309
			c1.98921,0,3.7451,0.32909,5.2695,0.9883c1.5215,0.6601,2.793,1.5957,3.81149,2.8066c1.01961,1.211,1.793,2.668,2.3213,4.37009
			c0.5264,1.7032,0.791,3.58501,0.791,5.64651v23.8125h-6.43939V91.5117c0-2.75681-0.62891-4.8974-1.8877-6.41991
			c-1.2588-1.5225-3.17091-2.28419-5.7373-2.28419c-1.8936,0-3.6631,0.4551-5.30469,1.3672
			c-1.64362,0.9111-3.15923,2.1455-4.54982,3.7051v27.44431h-6.4395V78.2754h3.84959c0.9102,0,1.47472,0.44431,1.69051,1.331
			L208.59569,83.5635z"/>
		<path class="st1" d="M272.83688,64.9258v50.39841h-3.8125c-0.91211,0-1.4873-0.44331-1.72751-1.331l-0.5752-5.0362
			c-1.55859,1.8701-3.33301,3.3809-5.3233,4.5323c-1.9902,1.1513-4.29288,1.72649-6.90619,1.72649
			c-2.08591,0-3.9805-0.4013-5.6826-1.2051c-1.7032-0.8027-3.15331-1.9843-4.35258-3.5429
			c-1.19922-1.55859-2.12199-3.5-2.76952-5.82719c-0.64648-2.3252-0.97169-5-0.97169-8.0215c0-2.6845,0.3604-5.1845,1.0791-7.499
			c0.7207-2.3135,1.75-4.3213,3.09279-6.0244c1.3437-1.7031,2.99121-3.04,4.94632-4.0117
			c1.95509-0.9707,4.15529-1.4561,6.60149-1.4561c2.22861,0,4.1416,0.378,5.73639,1.1328
			c1.59473,0.75591,3.01563,1.8047,4.26273,3.14851V64.9258c0-1.7647,1.43057-3.1963,3.19528-3.1963h0.01172
			C271.40628,61.7295,272.83688,63.1611,272.83688,64.9258z M266.4346,86.9443c-1.19922-1.6064-2.49512-2.7285-3.88483-3.3632
			c-1.3916-0.6348-2.94919-0.9532-4.67679-0.9532c-3.3808,0-5.98239,1.211-7.8046,3.6328
			c-1.8223,2.42191-2.73439,5.87601-2.73439,10.35841c0,2.375,0.20409,4.4073,0.61229,6.09769
			c0.4072,1.69041,1.00681,3.0811,1.79779,4.17191c0.79201,1.0918,1.76181,1.8886,2.91411,2.39159
			c1.15041,0.50391,2.457,0.75581,3.92091,0.75581c2.10938,0,3.9502-0.4795,5.52148-1.4384
			c1.56931-0.959,3.01459-2.3145,4.33401-4.0655V86.9443z"/>
		<path class="st1" d="M304.20209,84.2822c-0.28799,0.5274-0.73141,0.792-1.33099,0.792c-0.35941,0-0.76862-0.13181-1.22272-0.3955
			c-0.45599-0.2646-1.01459-0.5576-1.6738-0.88181c-0.65918-0.3242-1.44431-0.6231-2.3555-0.8994
			c-0.91006-0.2754-1.9902-0.4141-3.2373-0.4141c-1.0791,0-2.04977,0.1387-2.91299,0.4141
			c-0.8624,0.2763-1.5997,0.6533-2.21201,1.1328c-0.61227,0.4804-1.0791,1.0371-1.40329,1.67281
			c-0.32419,0.6358-0.48441,1.3252-0.48441,2.0684c0,0.9346,0.26959,1.7148,0.80859,2.3379
			c0.53912,0.624,1.25201,1.1631,2.14072,1.6181c0.88568,0.4561,1.8945,0.8575,3.02051,1.2051
			c1.12689,0.34769,2.2832,0.7197,3.4707,1.1153c1.1875,0.3955,2.34369,0.8339,3.47168,1.3125
			c1.12689,0.4804,2.13373,1.0791,3.02139,1.79881c0.88681,0.7197,1.59961,1.6006,2.13971,2.64349
			c0.54001,1.04401,0.80963,2.29691,0.80963,3.7588c0,1.6787-0.29993,3.2324-0.89954,4.6582
			c-0.59958,1.4268-1.4873,2.66209-2.6611,3.70509c-1.17578,1.043-2.61429,1.8652-4.31638,2.46391
			c-1.70313,0.59859-3.66891,0.8984-5.89941,0.8984c-2.54099,0-4.84381-0.4131-6.9053-1.2402
			c-0.97751-0.3916-1.8848-0.8369-2.7226-1.334c-1.48151-0.8799-1.9278-2.8233-1.02151-4.2891l0.00293-0.0058
			c0.19138-0.3116,0.41989-0.5518,0.68259-0.7198c0.26471-0.16689,0.59961-0.2519,1.00781-0.2519
			c0.43167,0,0.8877,0.16801,1.36618,0.50391c0.4805,0.3359,1.06161,0.708,1.74609,1.1143
			c0.6817,0.4091,1.51572,0.7802,2.49911,1.1162c0.98239,0.3349,2.20599,0.5029,3.66888,0.5029
			c1.2471,0,2.33792-0.1611,3.27252-0.4854c0.93649-0.3242,1.71478-0.7607,2.33878-1.31339
			c0.62311-0.5518,1.08502-1.18661,1.38483-1.9063c0.29977-0.7187,0.44919-1.4853,0.44919-2.3008
			c0-1.0078-0.27051-1.8408-0.80859-2.50089c-0.54001-0.6582-1.25491-1.2227-2.14059-1.69051
			c-0.88672-0.4677-1.9014-0.875-3.04001-1.2226c-1.13971-0.3477-2.30182-0.71391-3.48932-1.0977
			c-1.18549-0.3828-2.34958-0.8203-3.48828-1.3125c-1.13962-0.4912-2.15228-1.1094-3.039-1.8525
			c-0.8877-0.7422-1.60062-1.6602-2.14072-2.751c-0.53998-1.0908-0.80948-2.416-0.80948-3.9756
			c0-1.3906,0.28799-2.7275,0.86319-4.0098c0.5762-1.2832,1.4151-2.4101,2.51761-3.38081
			c1.10349-0.97169,2.45898-1.74509,4.06549-2.3203c1.60641-0.5762,3.4404-0.8633,5.5029-0.8633
			c2.39651,0,4.55081,0.3779,6.457,1.1328c0.9082,0.3594,1.75681,0.7832,2.54791,1.2705c1.41788,0.875,1.8349,2.7539,0.96188,4.1729
			L304.20209,84.2822z"/>
	</g>
</g>
<path class="st0" d="M322.90527,110.9961c0,2.541-2.06738,4.6182-4.62598,4.6182c-2.53912,0-4.61621-2.0772-4.61621-4.6182
	c0-2.5518,2.07709-4.6289,4.61621-4.6289C320.83789,106.3672,322.90527,108.4443,322.90527,110.9961z"/>
<path class="st0" d="M92.15529,116.9268h-79.2832c-4.1778,0-7.5962-3.41801-7.5962-7.5967V30.0479
	c0-4.1788,3.4184-7.5967,7.5962-7.5967h79.2832c4.17771,0,7.5962,3.4179,7.5962,7.5967v79.2822
	C99.75149,113.5088,96.333,116.9268,92.15529,116.9268z"/>
<g>
	<g>
		<path class="st2" d="M34.03469,63.958c1.228-2.5078,2.7085-4.4766,4.4389-5.9062c1.73-1.4297,3.812-2.1446,6.2456-2.1446
			c0.8272,0,1.6109,0.0948,2.3501,0.2832c0.7398,0.1875,1.3858,0.4698,1.938,0.8457l-0.4887,5.5303
			c-0.1763,0.6768-0.5899,1.0156-1.2417,1.0156c-0.3521,0-0.879-0.0693-1.5796-0.207c-0.7032-0.1377-1.4551-0.207-2.25829-0.207
			c-1.17871,0-2.21931,0.1699-3.12211,0.5078c-0.9028,0.3388-1.7114,0.8408-2.4258,1.5049
			c-0.7153,0.664-1.34909,1.4804-1.9004,2.4453c-0.55169,0.9658-1.0664,2.0635-1.5425,3.291v23.9268h-7.3354V56.6221h4.2134
			c0.8027,0,1.3476,0.1455,1.6367,0.4336c0.28811,0.2881,0.4946,0.7959,0.62011,1.5224L34.03469,63.958z"/>
	</g>
	<g>
		<path class="st2" d="M69.06689,95.4395c-3.0845,0-5.4609-0.8653-7.1279-2.5957c-1.668-1.73051-2.50251-4.2002-2.50251-7.4102
			V63.6113h-4.4389c-0.4263,0-0.7842-0.1308-1.0713-0.3945c-0.2891-0.2637-0.4331-0.6592-0.4331-1.1855v-4.8458l6.207-0.0419
			l1.6553-11.3985c0.0996-0.4267,0.2944-0.7588,0.58351-0.9971c0.28809-0.2382,0.65769-0.3574,1.10929-0.3574h3.7242v12.8282
			h10.8344v6.3925h-10.8344v21.333c0,1.50491,0.3696,2.627,1.1098,3.3662c0.7398,0.7403,1.6865,1.1104,2.8399,1.1104
			c0.6772,0,1.2607-0.0879,1.7495-0.26369c0.4892-0.1748,0.9082-0.3691,1.2607-0.583c0.35061-0.21291,0.6514-0.4072,0.9029-0.583
			c0.25-0.1748,0.4755-0.2637,0.6772-0.2637c0.2495,0,0.4453,0.0567,0.5825,0.169c0.1377,0.1133,0.28269,0.2959,0.4331,0.5459
			l2.1822,3.5361c-1.2041,1.1045-2.63329,1.957-4.2886,2.5586C72.56539,95.1387,70.84809,95.4395,69.06689,95.4395z"/>
	</g>
</g>
</svg>
